<svg width="148" height="46" viewBox="0 0 148 46" fill="none" xmlns="http://www.w3.org/2000/svg">
<path d="M23.4246 1.76926H0V9.05849H23.4246V1.76926Z" fill="white"/>
<path d="M40.1267 29.2984L42.8159 26.6092C45.2221 24.203 46.4252 21.0892 46.6375 17.1969C46.4959 11.96 44.7975 7.99689 41.4713 5.16612C38.7113 2.97227 34.8898 1.91074 29.8652 1.83997V8.91689C34.6067 9.05842 37.5082 10.8984 38.6406 14.5077C39.3482 16.4184 39.2775 18.4707 38.4282 20.523C37.0836 23.92 34.2529 25.9015 29.9359 26.5384C29.8652 26.5384 29.7944 26.5384 29.7236 26.5384L29.9359 26.8215L41.259 43.0277H49.9636L40.1267 29.2984Z" fill="white"/>
<path d="M14.508 26.5385H7.21875V42.6031H14.508V26.5385Z" fill="white"/>
<path d="M18.4709 23.7785H15.7817L14.6494 22.3631C14.0125 22.9292 13.4463 23.2831 12.9509 23.5662C12.314 23.8492 11.6771 24.0616 10.9694 24.0616C9.97862 24.0616 9.05862 23.7077 8.20939 23.0708C7.36016 22.3631 6.93555 21.5139 6.93555 20.5939C6.93555 19.6739 7.21862 18.8954 7.71401 18.2585C8.06785 17.8339 8.70478 17.3385 9.62478 16.6308C8.84632 15.7816 8.49247 15.0031 8.49247 14.1539C8.49247 13.2339 8.77555 12.5262 9.3417 12.0308C9.90785 11.5354 10.6155 11.3231 11.5355 11.3231C12.3848 11.3231 13.0925 11.5354 13.6586 12.0308C14.2955 12.5262 14.6494 13.2339 14.6494 14.0123C14.6494 15.0739 13.9417 15.9939 12.5971 16.9139L14.6494 19.32L15.4279 19.1785H17.4802L16.0648 20.8769L18.4709 23.7785ZM13.234 20.8769C12.7386 20.24 11.9602 19.3908 10.8986 18.1877C10.1202 18.6831 9.76632 19.0369 9.62478 19.1077C9.20016 19.5323 8.98785 19.9569 8.98785 20.4523C8.98785 20.9477 9.20016 21.3016 9.62478 21.6554C10.0494 22.0092 10.474 22.1508 10.8986 22.1508C11.6063 22.08 12.314 21.6554 13.234 20.8769ZM12.5971 13.9416C12.5971 13.3046 12.2432 13.0216 11.5355 13.0216C11.2525 13.0216 11.0402 13.0923 10.8279 13.2339C10.6155 13.3754 10.474 13.5877 10.474 13.8708C10.474 14.2954 10.7571 14.7908 11.3232 15.4277C12.2432 14.9323 12.5971 14.3662 12.5971 13.9416Z" fill="white"/>
<path d="M61.0739 0H60.3662V46H61.0739V0Z" fill="white"/>
<path d="M29.8646 26.6092V26.8923L29.6523 26.6092C29.7231 26.6092 29.7939 26.6092 29.8646 26.6092Z" fill="black"/>
<path d="M80.1106 16.0646C80.1106 17.9046 78.6244 19.4615 76.7137 19.4615H71.9014V7.92612H76.2891C78.3414 7.92612 79.6152 9.27073 79.6152 11.04C79.6152 11.8184 79.1198 12.7384 78.6244 13.2338V13.3046C79.686 13.8707 80.1106 14.8615 80.1106 16.0646ZM74.2368 12.5261H76.006C76.8552 12.5261 77.2091 11.8892 77.2091 11.1815C77.2091 10.5446 76.7844 9.97842 76.006 9.97842H74.3075V12.5261H74.2368ZM77.7044 15.8523C77.7044 15.0738 77.1383 14.5077 76.3598 14.5077H74.2368V17.2677H76.3598C77.1383 17.2677 77.7044 16.6307 77.7044 15.8523Z" fill="white"/>
<path d="M91.0092 7.92612V15.4984C91.0092 17.6215 89.1692 19.5323 86.4799 19.5323C83.8615 19.5323 82.0215 17.6215 82.0215 15.4984V7.92612H84.3569V15.3569C84.3569 16.2769 85.2769 17.3384 86.4799 17.3384C87.7538 17.3384 88.6738 16.2769 88.6738 15.3569V7.92612H91.0092Z" fill="white"/>
<path d="M93.0615 15.7816H95.5384C95.6092 16.7016 96.2461 17.3385 97.3077 17.3385C98.1569 17.3385 99.2185 17.1969 99.2185 16.2062C99.2185 15.5693 98.7231 15.2154 97.9446 15.0031C97.7323 14.9323 96.3169 14.3662 95.6092 14.1539C94.3354 13.7293 93.3446 12.5262 93.3446 11.1816C93.3446 9.20002 94.8308 7.78464 97.52 7.78464C99.5723 7.78464 101.412 8.91695 101.412 11.4646H98.8646C98.8646 10.5446 98.2985 9.90771 97.3785 9.90771C96.4585 9.90771 95.8215 10.3323 95.8215 11.04C95.8215 11.6062 96.1046 12.0308 96.7415 12.2431L99.0061 13.0216C100.634 13.5877 101.625 14.5785 101.625 16.1354C101.554 18.4708 100.138 19.6031 97.2369 19.6031C95.3261 19.5323 93.0615 18.7539 93.0615 15.7816Z" fill="white"/>
<path d="M105.942 19.3907H103.606V7.92612H105.942V19.3907Z" fill="white"/>
<path d="M110.825 13.1631V19.3908H108.489V7.71387H108.985L115.071 14.2246V7.8554H117.406V19.5323H116.911L110.825 13.1631Z" fill="white"/>
<path d="M127.03 17.2677V19.3907H119.883V7.92612H126.889V10.0492H122.218V12.5969H126.181V14.72H122.218V17.2677H127.03Z" fill="white"/>
<path d="M128.658 15.7816H131.135C131.206 16.7016 131.843 17.3385 132.904 17.3385C133.754 17.3385 134.815 17.1969 134.815 16.2062C134.815 15.5693 134.32 15.2154 133.541 15.0031C133.329 14.9323 131.914 14.3662 131.206 14.1539C129.932 13.7293 128.941 12.5262 128.941 11.1816C128.941 9.20002 130.427 7.78464 133.117 7.78464C135.169 7.78464 137.009 8.91695 137.009 11.4646H134.461C134.461 10.5446 133.895 9.90771 132.975 9.90771C132.055 9.90771 131.418 10.3323 131.418 11.04C131.418 11.6062 131.701 12.0308 132.338 12.2431L134.603 13.0216C136.231 13.5877 137.221 14.5785 137.221 16.1354C137.151 18.4708 135.735 19.6031 132.834 19.6031C130.994 19.5323 128.658 18.7539 128.658 15.7816Z" fill="white"/>
<path d="M138.708 15.7816H141.185C141.256 16.7016 141.893 17.3385 142.954 17.3385C143.803 17.3385 144.794 17.1969 144.794 16.2062C144.794 15.5693 144.299 15.2154 143.52 15.0031C143.308 14.9323 141.893 14.3662 141.185 14.1539C139.911 13.7293 138.92 12.5262 138.92 11.1816C138.92 9.20002 140.406 7.78464 143.096 7.78464C145.148 7.78464 146.988 8.91695 146.988 11.4646H144.44C144.44 10.5446 143.874 9.90771 142.954 9.90771C142.034 9.90771 141.397 10.3323 141.397 11.04C141.397 11.6062 141.68 12.0308 142.317 12.2431L144.582 13.0216C146.21 13.5877 147.2 14.5785 147.2 16.1354C147.13 18.4708 145.714 19.6031 142.813 19.6031C141.043 19.5323 138.779 18.7539 138.708 15.7816Z" fill="white"/>
<path d="M80.9598 33.12C80.9598 35.5969 79.2613 37.5076 76.289 37.5076C72.8921 37.5076 71.2644 34.6061 71.406 31.6338C71.406 28.6615 72.8921 25.6892 76.2183 25.6892C79.1198 25.6892 80.9598 27.5292 80.9598 30.0769H78.4829C78.4121 28.803 77.5629 27.9538 76.2183 27.9538C74.5198 27.9538 73.8121 29.8646 73.8121 31.6338C73.8121 33.2615 74.3783 35.3138 76.289 35.3138C77.7752 35.3138 78.4829 34.2523 78.4829 33.1907H80.9598V33.12Z" fill="white"/>
<path d="M89.8763 35.1723V37.2954H83.0117V25.76H85.3471V35.1015H89.8763V35.1723Z" fill="white"/>
<path d="M99.9262 25.76V33.3323C99.9262 35.4554 98.0154 37.3661 95.3969 37.3661C92.7785 37.3661 90.9385 35.4554 90.9385 33.3323V25.76H93.2739V33.1907C93.2739 34.1107 94.1939 35.1723 95.3969 35.1723C96.6708 35.1723 97.5908 34.1107 97.5908 33.1907V25.76H99.9262Z" fill="white"/>
<path d="M110.683 33.8984C110.683 35.7384 109.197 37.2954 107.286 37.2954H102.403V25.76H106.791C108.843 25.76 110.117 27.1046 110.117 28.8738C110.117 29.6523 109.622 30.5723 109.126 30.9969V31.0677C110.259 31.7754 110.683 32.7661 110.683 33.8984ZM104.809 30.36H106.579C107.428 30.36 107.782 29.7231 107.782 29.0154C107.782 28.3784 107.357 27.8123 106.579 27.8123H104.88V30.36H104.809ZM108.277 33.7569C108.277 32.9784 107.711 32.4123 106.933 32.4123H104.809V35.1723H106.933C107.711 35.1015 108.277 34.5354 108.277 33.7569Z" fill="white"/>
</svg>
