<svg width="50" height="43" viewBox="0 0 50 43" fill="none" xmlns="http://www.w3.org/2000/svg">
<path d="M23.4246 0.769241H0V8.05847H23.4246V0.769241Z" fill="white"/>
<path d="M40.1257 28.2984L42.815 25.6092C45.2211 23.203 46.4242 20.0892 46.6365 16.1969C46.495 10.96 44.7965 6.99689 41.4703 4.16612C38.7103 1.97227 34.8888 0.910735 29.8642 0.839966V7.91689C34.6057 8.05842 37.5073 9.89843 38.6396 13.5077C39.3473 15.4184 39.2765 17.4707 38.4273 19.523C37.0827 22.92 34.2519 24.9015 29.935 25.5384C29.8642 25.5384 29.7934 25.5384 29.7227 25.5384L29.935 25.8215L41.258 42.0277H49.9627L40.1257 28.2984Z" fill="white"/>
<path d="M14.508 25.5385H7.21875V41.6031H14.508V25.5385Z" fill="white"/>
<path d="M18.4709 22.7785H15.7817L14.6494 21.3631C14.0125 21.9292 13.4463 22.2831 12.9509 22.5662C12.314 22.8492 11.6771 23.0615 10.9694 23.0615C9.97862 23.0615 9.05862 22.7077 8.20939 22.0708C7.36016 21.3631 6.93555 20.5138 6.93555 19.5938C6.93555 18.6738 7.21862 17.8954 7.71401 17.2585C8.06785 16.8338 8.70478 16.3385 9.62478 15.6308C8.84632 14.7815 8.49247 14.0031 8.49247 13.1538C8.49247 12.2338 8.77555 11.5262 9.3417 11.0308C9.90785 10.5354 10.6155 10.3231 11.5355 10.3231C12.3848 10.3231 13.0925 10.5354 13.6586 11.0308C14.2955 11.5262 14.6494 12.2338 14.6494 13.0123C14.6494 14.0738 13.9417 14.9938 12.5971 15.9138L14.6494 18.32L15.4279 18.1785H17.4802L16.0648 19.8769L18.4709 22.7785ZM13.234 19.8769C12.7386 19.24 11.9602 18.3908 10.8986 17.1877C10.1202 17.6831 9.76632 18.0369 9.62478 18.1077C9.20016 18.5323 8.98785 18.9569 8.98785 19.4523C8.98785 19.9477 9.20016 20.3015 9.62478 20.6554C10.0494 21.0092 10.474 21.1508 10.8986 21.1508C11.6063 21.08 12.314 20.6554 13.234 19.8769ZM12.5971 12.9415C12.5971 12.3046 12.2432 12.0215 11.5355 12.0215C11.2525 12.0215 11.0402 12.0923 10.8279 12.2338C10.6155 12.3754 10.474 12.5877 10.474 12.8708C10.474 13.2954 10.7571 13.7908 11.3232 14.4277C12.2432 13.9323 12.5971 13.3662 12.5971 12.9415Z" fill="white"/>
</svg>
