<svg width="62" height="46" viewBox="0 0 62 46" fill="none" xmlns="http://www.w3.org/2000/svg">
<path d="M23.4246 1.76926H0V9.05849H23.4246V1.76926Z" fill="white"/>
<path d="M40.1267 29.2984L42.8159 26.6092C45.2221 24.203 46.4252 21.0892 46.6375 17.1969C46.4959 11.96 44.7975 7.99689 41.4713 5.16612C38.7113 2.97227 34.8898 1.91074 29.8652 1.83997V8.91689C34.6067 9.05842 37.5082 10.8984 38.6406 14.5077C39.3482 16.4184 39.2775 18.4707 38.4282 20.523C37.0836 23.92 34.2529 25.9015 29.9359 26.5384C29.8652 26.5384 29.7944 26.5384 29.7236 26.5384L29.9359 26.8215L41.259 43.0277H49.9636L40.1267 29.2984Z" fill="white"/>
<path d="M14.508 26.5385H7.21875V42.6031H14.508V26.5385Z" fill="white"/>
<path d="M18.4709 23.7785H15.7817L14.6494 22.3631C14.0125 22.9292 13.4463 23.2831 12.9509 23.5662C12.314 23.8492 11.6771 24.0616 10.9694 24.0616C9.97862 24.0616 9.05862 23.7077 8.20939 23.0708C7.36016 22.3631 6.93555 21.5139 6.93555 20.5939C6.93555 19.6739 7.21862 18.8954 7.71401 18.2585C8.06785 17.8339 8.70478 17.3385 9.62478 16.6308C8.84632 15.7816 8.49247 15.0031 8.49247 14.1539C8.49247 13.2339 8.77555 12.5262 9.3417 12.0308C9.90785 11.5354 10.6155 11.3231 11.5355 11.3231C12.3848 11.3231 13.0925 11.5354 13.6586 12.0308C14.2955 12.5262 14.6494 13.2339 14.6494 14.0123C14.6494 15.0739 13.9417 15.9939 12.5971 16.9139L14.6494 19.32L15.4279 19.1785H17.4802L16.0648 20.8769L18.4709 23.7785ZM13.234 20.8769C12.7386 20.24 11.9602 19.3908 10.8986 18.1877C10.1202 18.6831 9.76632 19.0369 9.62478 19.1077C9.20016 19.5323 8.98785 19.9569 8.98785 20.4523C8.98785 20.9477 9.20016 21.3016 9.62478 21.6554C10.0494 22.0092 10.474 22.1508 10.8986 22.1508C11.6063 22.08 12.314 21.6554 13.234 20.8769ZM12.5971 13.9416C12.5971 13.3046 12.2432 13.0216 11.5355 13.0216C11.2525 13.0216 11.0402 13.0923 10.8279 13.2339C10.6155 13.3754 10.474 13.5877 10.474 13.8708C10.474 14.2954 10.7571 14.7908 11.3232 15.4277C12.2432 14.9323 12.5971 14.3662 12.5971 13.9416Z" fill="white"/>
<path d="M61.0739 0H60.3662V46H61.0739V0Z" fill="white"/>
</svg>
