<svg width="461" height="144" viewBox="0 0 461 144" fill="none" xmlns="http://www.w3.org/2000/svg">
<path d="M73.3292 5.5387H0V28.3572H73.3292V5.5387Z" fill="white"/>
<path d="M125.614 91.7168L134.032 83.2983C141.565 75.766 145.331 66.0183 145.996 53.8337C145.552 37.4399 140.236 25.0337 129.823 16.1722C121.183 9.3045 109.22 5.98143 93.4909 5.75989V27.9137C108.334 28.3568 117.417 34.1168 120.962 45.4153C123.177 51.3968 122.956 57.8214 120.297 64.246C116.088 74.8799 107.226 81.083 93.7125 83.0768C93.4909 83.0768 93.2694 83.0768 93.0479 83.0768L93.7125 83.963L129.159 134.695H156.408L125.614 91.7168Z" fill="white"/>
<path d="M45.4161 83.0769H22.5977V133.366H45.4161V83.0769Z" fill="white"/>
<path d="M57.8217 74.4371H49.4032L45.8586 70.0063C43.8648 71.7786 42.0925 72.8863 40.5417 73.7724C38.5479 74.6586 36.554 75.3232 34.3386 75.3232C31.2371 75.3232 28.3571 74.2155 25.6986 72.2217C23.0402 70.0063 21.7109 67.3478 21.7109 64.4678C21.7109 61.5878 22.5971 59.1509 24.1479 57.1571C25.2555 55.8278 27.2494 54.2771 30.1294 52.0617C27.6925 49.4032 26.5848 46.9663 26.5848 44.3078C26.5848 41.4278 27.4709 39.2124 29.2432 37.6617C31.0155 36.1109 33.2309 35.4463 36.1109 35.4463C38.7694 35.4463 40.9848 36.1109 42.7571 37.6617C44.7509 39.2124 45.8586 41.4278 45.8586 43.8647C45.8586 47.1878 43.6432 50.0678 39.434 52.9478L45.8586 60.4801L48.2956 60.0371H54.7202L50.2894 65.354L57.8217 74.4371ZM41.4279 65.354C39.8771 63.3601 37.4402 60.7017 34.1171 56.9355C31.6802 58.4863 30.5725 59.594 30.1294 59.8155C28.8002 61.1448 28.1355 62.474 28.1355 64.0248C28.1355 65.5755 28.8002 66.6832 30.1294 67.7909C31.4586 68.8986 32.7879 69.3417 34.1171 69.3417C36.3325 69.1201 38.5479 67.7909 41.4279 65.354ZM39.434 43.6432C39.434 41.6494 38.3263 40.7632 36.1109 40.7632C35.2248 40.7632 34.5602 40.9848 33.8956 41.4278C33.2309 41.8709 32.7879 42.5355 32.7879 43.4217C32.7879 44.7509 33.674 46.3017 35.4463 48.2955C38.3263 46.7447 39.434 44.9724 39.434 43.6432Z" fill="white"/>
<path d="M191.188 0H188.973V144H191.188V0Z" fill="white"/>
<path d="M93.4898 83.2986V84.1847L92.8252 83.2986C93.0467 83.2986 93.2683 83.2986 93.4898 83.2986Z" fill="black"/>
<path d="M250.781 50.2893C250.781 56.0493 246.128 60.9231 240.147 60.9231H225.082V24.8124H238.817C245.242 24.8124 249.23 29.0216 249.23 34.5601C249.23 36.997 247.679 39.877 246.128 41.4278V41.6493C249.451 43.4216 250.781 46.5231 250.781 50.2893ZM232.393 39.2124H237.931C240.59 39.2124 241.697 37.2185 241.697 35.0031C241.697 33.0093 240.368 31.237 237.931 31.237H232.614V39.2124H232.393ZM243.248 49.6247C243.248 47.1878 241.476 45.4155 239.039 45.4155H232.393V54.0555H239.039C241.476 54.0555 243.248 52.0616 243.248 49.6247Z" fill="white"/>
<path d="M284.898 24.8124V48.517C284.898 55.1632 279.138 61.1447 270.72 61.1447C262.523 61.1447 256.763 55.1632 256.763 48.517V24.8124H264.073V48.0739C264.073 50.9539 266.953 54.277 270.72 54.277C274.707 54.277 277.587 50.9539 277.587 48.0739V24.8124H284.898Z" fill="white"/>
<path d="M291.323 49.4034H299.077C299.299 52.2834 301.292 54.2772 304.616 54.2772C307.274 54.2772 310.597 53.8341 310.597 50.7326C310.597 48.7387 309.046 47.631 306.609 46.9664C305.945 46.7449 301.514 44.9726 299.299 44.308C295.311 42.9787 292.209 39.2126 292.209 35.0034C292.209 28.8003 296.862 24.3695 305.28 24.3695C311.705 24.3695 317.465 27.9141 317.465 35.8895H309.489C309.489 33.0095 307.717 31.0157 304.837 31.0157C301.957 31.0157 299.963 32.3449 299.963 34.5603C299.963 36.3326 300.849 37.6618 302.843 38.3264L309.932 40.7634C315.028 42.5357 318.129 45.6372 318.129 50.511C317.908 57.8218 313.477 61.3664 304.394 61.3664C298.412 61.1449 291.323 58.708 291.323 49.4034Z" fill="white"/>
<path d="M331.644 60.7016H324.333V24.8124H331.644V60.7016Z" fill="white"/>
<path d="M346.929 41.2063V60.7017H339.618V24.1478H341.169L360.221 44.5294V24.5909H367.532V61.1447H365.981L346.929 41.2063Z" fill="white"/>
<path d="M397.661 54.0555V60.7016H375.285V24.8124H397.217V31.4585H382.596V39.4339H395.002V46.0801H382.596V54.0555H397.661Z" fill="white"/>
<path d="M402.756 49.4034H410.51C410.731 52.2834 412.725 54.2772 416.048 54.2772C418.707 54.2772 422.03 53.8341 422.03 50.7326C422.03 48.7387 420.479 47.631 418.042 46.9664C417.377 46.7449 412.947 44.9726 410.731 44.308C406.744 42.9787 403.642 39.2126 403.642 35.0034C403.642 28.8003 408.294 24.3695 416.713 24.3695C423.137 24.3695 428.897 27.9141 428.897 35.8895H420.922C420.922 33.0095 419.15 31.0157 416.27 31.0157C413.39 31.0157 411.396 32.3449 411.396 34.5603C411.396 36.3326 412.282 37.6618 414.276 38.3264L421.365 40.7634C426.46 42.5357 429.562 45.6372 429.562 50.511C429.34 57.8218 424.91 61.3664 415.827 61.3664C410.067 61.1449 402.756 58.708 402.756 49.4034Z" fill="white"/>
<path d="M434.216 49.4034H441.97C442.191 52.2834 444.185 54.2772 447.508 54.2772C450.167 54.2772 453.268 53.8341 453.268 50.7326C453.268 48.7387 451.717 47.631 449.28 46.9664C448.616 46.7449 444.185 44.9726 441.97 44.308C437.982 42.9787 434.88 39.2126 434.88 35.0034C434.88 28.8003 439.533 24.3695 447.951 24.3695C454.376 24.3695 460.136 27.9141 460.136 35.8895H452.16C452.16 33.0095 450.388 31.0157 447.508 31.0157C444.628 31.0157 442.634 32.3449 442.634 34.5603C442.634 36.3326 443.52 37.6618 445.514 38.3264L452.604 40.7634C457.699 42.5357 460.8 45.6372 460.8 50.511C460.579 57.8218 456.148 61.3664 447.065 61.3664C441.527 61.1449 434.437 58.708 434.216 49.4034Z" fill="white"/>
<path d="M253.439 103.68C253.439 111.434 248.122 117.415 238.818 117.415C228.184 117.415 223.088 108.332 223.531 99.0277C223.531 89.7231 228.184 80.4185 238.596 80.4185C247.679 80.4185 253.439 86.1785 253.439 94.1538H245.685C245.464 90.1662 242.805 87.5077 238.596 87.5077C233.279 87.5077 231.064 93.4892 231.064 99.0277C231.064 104.123 232.836 110.548 238.818 110.548C243.47 110.548 245.685 107.225 245.685 103.902H253.439V103.68Z" fill="white"/>
<path d="M281.352 110.105V116.751H259.862V80.6401H267.173V109.883H281.352V110.105Z" fill="white"/>
<path d="M312.812 80.6401V104.345C312.812 110.991 306.831 116.972 298.634 116.972C290.437 116.972 284.677 110.991 284.677 104.345V80.6401H291.988V103.902C291.988 106.782 294.868 110.105 298.634 110.105C302.621 110.105 305.501 106.782 305.501 103.902V80.6401H312.812Z" fill="white"/>
<path d="M346.486 106.117C346.486 111.877 341.834 116.751 335.853 116.751H320.566V80.6401H334.302C340.726 80.6401 344.714 84.8494 344.714 90.3878C344.714 92.8247 343.163 95.7048 341.613 97.034V97.2555C345.157 99.4709 346.486 102.572 346.486 106.117ZM328.099 95.0401H333.637C336.296 95.0401 337.403 93.0463 337.403 90.8309C337.403 88.8371 336.074 87.0647 333.637 87.0647H328.32V95.0401H328.099ZM338.954 105.674C338.954 103.237 337.182 101.465 334.745 101.465H328.099V110.105H334.745C337.182 109.883 338.954 108.111 338.954 105.674Z" fill="white"/>
</svg>
