<svg width="106" height="44" viewBox="0 0 106 44" fill="none" xmlns="http://www.w3.org/2000/svg">
<path d="M15.8047 31.0195H7.07227L5.41211 36H0.116211L9.11426 11.8281H13.7295L22.7773 36H17.4814L15.8047 31.0195ZM8.41699 26.9854H14.46L11.4219 17.9375L8.41699 26.9854ZM28.4232 36H23.6087V18.0371H28.4232V36ZM23.3265 13.3887C23.3265 12.6693 23.5645 12.0771 24.0404 11.6123C24.5274 11.1475 25.1859 10.915 26.016 10.915C26.835 10.915 27.488 11.1475 27.975 11.6123C28.4619 12.0771 28.7054 12.6693 28.7054 13.3887C28.7054 14.1191 28.4564 14.7168 27.9584 15.1816C27.4714 15.6465 26.8239 15.8789 26.016 15.8789C25.208 15.8789 24.555 15.6465 24.057 15.1816C23.57 14.7168 23.3265 14.1191 23.3265 13.3887Z" fill="#FFA339"/>
<path d="M30.3337 26.8857C30.3337 24.1299 30.9867 21.9108 32.2927 20.2285C33.6098 18.5462 35.3806 17.7051 37.6052 17.7051C39.5752 17.7051 41.1081 18.3802 42.2038 19.7305L42.403 18.0371H46.7527V35.4023C46.7527 36.974 46.393 38.3408 45.6736 39.5029C44.9652 40.665 43.9636 41.5505 42.6687 42.1592C41.3738 42.7679 39.8575 43.0723 38.1198 43.0723C36.8028 43.0723 35.5189 42.8066 34.2683 42.2754C33.0176 41.7552 32.0713 41.0801 31.4294 40.25L33.5544 37.3281C34.7497 38.6673 36.1996 39.3369 37.904 39.3369C39.1768 39.3369 40.1674 38.9938 40.8757 38.3076C41.584 37.6325 41.9382 36.6696 41.9382 35.4189V34.4561C40.8314 35.7067 39.376 36.332 37.572 36.332C35.4138 36.332 33.6651 35.4909 32.3259 33.8086C30.9978 32.1152 30.3337 29.874 30.3337 27.085V26.8857ZM35.1316 27.2344C35.1316 28.8613 35.4581 30.1396 36.1111 31.0693C36.7641 31.988 37.6605 32.4473 38.8005 32.4473C40.2614 32.4473 41.3073 31.8994 41.9382 30.8037V23.25C41.2963 22.1543 40.2614 21.6064 38.8337 21.6064C37.6827 21.6064 36.7751 22.0768 36.1111 23.0176C35.4581 23.9583 35.1316 25.3639 35.1316 27.2344ZM59.504 36C59.2826 35.5684 59.1221 35.0316 59.0225 34.3896C57.8604 35.6846 56.3497 36.332 54.4903 36.332C52.7305 36.332 51.2696 35.8229 50.1075 34.8047C48.9565 33.7865 48.3809 32.5026 48.3809 30.9531C48.3809 29.0495 49.0837 27.5885 50.4893 26.5703C51.906 25.5521 53.948 25.0374 56.6153 25.0264H58.8233V23.9971C58.8233 23.167 58.6075 22.5029 58.1759 22.0049C57.7553 21.5068 57.0857 21.2578 56.1671 21.2578C55.3591 21.2578 54.7227 21.4515 54.2579 21.8389C53.8041 22.2262 53.5772 22.7575 53.5772 23.4326H48.7794C48.7794 22.3923 49.1003 21.4294 49.7423 20.5439C50.3842 19.6585 51.2917 18.9668 52.4649 18.4688C53.6381 17.9596 54.9552 17.7051 56.4161 17.7051C58.6296 17.7051 60.3839 18.264 61.6788 19.3818C62.9848 20.4886 63.6378 22.0492 63.6378 24.0635V31.8496C63.6488 33.554 63.8868 34.8434 64.3516 35.7178V36H59.504ZM55.5362 32.6631C56.2445 32.6631 56.8975 32.5081 57.4952 32.1982C58.0928 31.8773 58.5356 31.4512 58.8233 30.9199V27.832H57.0303C54.6287 27.832 53.3503 28.6621 53.1954 30.3223L53.1788 30.6045C53.1788 31.2021 53.3891 31.6947 53.8096 32.082C54.2302 32.4694 54.8057 32.6631 55.5362 32.6631ZM70.4623 18.0371L70.6118 20.0459C71.8845 18.4854 73.6056 17.7051 75.7748 17.7051C78.088 17.7051 79.6762 18.6182 80.5395 20.4443C81.8012 18.6182 83.5997 17.7051 85.935 17.7051C87.8829 17.7051 89.3328 18.2751 90.2846 19.415C91.2364 20.5439 91.7123 22.2484 91.7123 24.5283V36H86.8979V24.5449C86.8979 23.5267 86.6987 22.7852 86.3002 22.3203C85.9018 21.8444 85.199 21.6064 84.1918 21.6064C82.753 21.6064 81.7569 22.2926 81.2036 23.665L81.2202 36H76.4223V24.5615C76.4223 23.5212 76.2175 22.7686 75.808 22.3037C75.3985 21.8389 74.7013 21.6064 73.7162 21.6064C72.3549 21.6064 71.3699 22.1709 70.7612 23.2998V36H65.9633V18.0371H70.4623Z" fill="white"/>
<rect x="99" width="7" height="7" fill="white"/>
<rect x="92" y="6" width="5" height="5" fill="white"/>
<rect x="98" y="13" width="3" height="3" fill="white"/>
</svg>
