<svg width="60" height="60" viewBox="0 0 60 60" fill="none" xmlns="http://www.w3.org/2000/svg">
<path d="M26.1477 21.2109C27.639 19.8068 29.3047 17.4898 29.7893 14.1797H45.8203C46.7902 14.1797 47.5781 14.9677 47.5781 15.9375C47.5781 16.9073 46.7902 17.6953 45.8203 17.6953H40.5469C37.639 17.6953 35.2734 20.0609 35.2734 22.9688V35.2734H30C24.1841 35.2734 19.4531 40.0044 19.4531 45.8203V55.0287C19.4531 57.7702 21.683 60 24.4245 60C25.7531 60 27.0011 59.4833 27.9401 58.5443L30 56.4844H44.0625L46.1224 58.5443C47.0614 59.4833 48.3094 60 49.638 60C52.3795 60 54.6094 57.7702 54.6094 55.0287V45.8203C54.6094 40.0044 49.8784 35.2734 44.0625 35.2734H38.7891V22.9688C38.7891 21.9989 39.577 21.2109 40.5469 21.2109H45.8203C48.7282 21.2109 51.0938 18.8454 51.0938 15.9375C51.0938 13.0296 48.7282 10.6641 45.8203 10.6641H29.8228C28.9631 4.70848 23.8889 0 17.6953 0C10.8996 0 5.39062 5.62617 5.39062 12.4219C5.39062 16.7965 7.46004 19.5825 9.20297 21.2109H26.1477ZM30 51.0938C27.0921 51.0938 24.7266 48.7282 24.7266 45.8203C24.7266 42.9124 27.0921 40.5469 30 40.5469C32.9079 40.5469 35.2734 42.9124 35.2734 45.8203C35.2734 48.7282 32.9079 51.0938 30 51.0938ZM44.0625 40.5469C46.9704 40.5469 49.3359 42.9124 49.3359 45.8203C49.3359 48.7282 46.9704 51.0938 44.0625 51.0938C41.1546 51.0938 38.7891 48.7282 38.7891 45.8203C38.7891 42.9124 41.1546 40.5469 44.0625 40.5469ZM21.2109 10.6641C22.1817 10.6641 22.9688 11.4511 22.9688 12.4219C22.9688 13.3927 22.1817 14.1797 21.2109 14.1797C20.2402 14.1797 19.4531 13.3927 19.4531 12.4219C19.4531 11.4511 20.2402 10.6641 21.2109 10.6641ZM14.1797 10.6641C15.1505 10.6641 15.9375 11.4511 15.9375 12.4219C15.9375 13.3927 15.1505 14.1797 14.1797 14.1797C13.2089 14.1797 12.4219 13.3927 12.4219 12.4219C12.4219 11.4511 13.2089 10.6641 14.1797 10.6641Z" fill="white"/>
<path d="M22.9688 26.4844V24.7266H12.4219V26.4844C12.4219 29.3923 14.7874 31.7578 17.6953 31.7578C20.6032 31.7578 22.9688 29.3923 22.9688 26.4844Z" fill="white"/>
<path d="M44.0625 47.5781C45.0333 47.5781 45.8203 46.7911 45.8203 45.8203C45.8203 44.8495 45.0333 44.0625 44.0625 44.0625C43.0917 44.0625 42.3047 44.8495 42.3047 45.8203C42.3047 46.7911 43.0917 47.5781 44.0625 47.5781Z" fill="white"/>
<path d="M30 47.5781C30.9708 47.5781 31.7578 46.7911 31.7578 45.8203C31.7578 44.8495 30.9708 44.0625 30 44.0625C29.0292 44.0625 28.2422 44.8495 28.2422 45.8203C28.2422 46.7911 29.0292 47.5781 30 47.5781Z" fill="white"/>
</svg>
