<svg width="60" height="60" viewBox="0 0 60 60" fill="none" xmlns="http://www.w3.org/2000/svg">
<g clip-path="url(#clip0)">
<path d="M47.375 36.9621C46.1975 34.5071 41.9849 31.0996 37.915 27.8071C35.645 25.972 33.5 24.2371 32.1325 22.8696C31.79 22.5246 31.2775 22.4146 30.825 22.5771C29.9826 22.8821 29.4625 23.1171 29.0526 23.2996C28.4276 23.5795 28.2176 23.6746 27.375 23.7595C27.0025 23.797 26.6676 23.9971 26.46 24.307C24.6925 26.9495 22.8625 26.7245 21.64 26.3146C21.25 26.1846 21.18 26.017 21.1425 25.8571C20.88 24.7596 22.1976 22.2046 23.905 20.497C27.9675 16.432 30.0625 15.4145 34.4875 17.392C39.5075 19.637 44.5375 21.3946 44.5876 21.412C45.2451 21.6395 45.9526 21.2945 46.18 20.642C46.405 19.9895 46.0625 19.277 45.41 19.0495C45.3599 19.0321 40.43 17.3095 35.51 15.107C29.7775 12.5444 26.6324 14.2319 22.1399 18.727C20.4299 20.437 18.1074 23.897 18.7074 26.4346C18.9648 27.5146 19.7249 28.3146 20.8548 28.687C23.6874 29.6221 26.2723 28.727 28.1974 26.1721C28.9924 26.0496 29.4249 25.8696 30.0748 25.5771C30.3098 25.4721 30.5848 25.3496 30.9499 25.2021C32.3799 26.5446 34.3099 28.1071 36.3424 29.7496C40.0174 32.722 44.1849 36.0921 45.1224 38.0421C45.5849 39.0046 45.0874 39.6321 44.7499 39.9196C44.2549 40.3446 43.5774 40.4796 43.2099 40.222C42.8049 39.9445 42.2774 39.9271 41.8599 40.177C41.4399 40.427 41.2049 40.8995 41.2574 41.3845C41.3424 42.1795 40.6149 42.6346 40.2999 42.7921C39.4999 43.1971 38.6649 43.1271 38.3524 42.8371C38.0023 42.5121 37.4998 42.4171 37.0549 42.5821C36.6099 42.7495 36.2998 43.1596 36.2548 43.6345C36.1798 44.4545 35.5723 45.242 34.7798 45.5495C34.3973 45.6945 33.8423 45.782 33.3448 45.327C33.0349 45.047 32.6048 44.9394 32.2024 45.0369C31.7949 45.1369 31.4674 45.432 31.3249 45.8244C31.2774 45.9495 31.1698 46.2495 29.9998 46.2495C29.1673 46.2495 27.6698 45.687 26.9374 45.2019C26.0599 44.6244 20.5573 40.5194 15.8049 36.5394C15.1374 35.9769 13.9824 34.7719 12.9624 33.7069C12.0573 32.7619 11.2299 31.9044 10.8048 31.5444C10.2723 31.0944 9.48485 31.1619 9.04235 31.6919C8.59739 32.2194 8.66231 33.0095 9.18989 33.4544C9.57742 33.782 10.3274 34.5744 11.1549 35.4369C12.2699 36.6019 13.4223 37.8069 14.1974 38.4569C18.8525 42.3545 24.4475 46.562 25.5624 47.2944C26.4824 47.8995 28.4649 48.7494 29.9999 48.7494C31.2324 48.7494 32.18 48.4669 32.8374 47.9145C33.7174 48.257 34.7174 48.2595 35.6799 47.8845C36.8174 47.4444 37.7524 46.557 38.2824 45.482C39.2674 45.692 40.3949 45.5445 41.4199 45.0295C42.4224 44.5246 43.1473 43.7521 43.5073 42.8495C44.5024 42.902 45.5273 42.5495 46.3748 41.822C47.81 40.5946 48.2049 38.6846 47.375 36.9621Z" fill="#161616"/>
<path d="M25 16.2495H13.75C13.06 16.2495 12.5 16.8096 12.5 17.4995C12.5 18.1895 13.06 18.7496 13.75 18.7496H25C25.69 18.7496 26.2501 18.1895 26.2501 17.4995C26.2501 16.8096 25.69 16.2495 25 16.2495Z" fill="#161616"/>
<path d="M51.0372 34.302C50.6497 33.7296 49.8747 33.5721 49.3023 33.9621L45.6473 36.417C45.0748 36.802 44.9223 37.5795 45.3073 38.152C45.5498 38.5095 45.9448 38.7045 46.3474 38.7045C46.5849 38.7045 46.8274 38.637 47.0424 38.4921L50.6974 36.0371C51.2697 35.652 51.4222 34.8746 51.0372 34.302Z" fill="#161616"/>
<path d="M43.2776 40.2672C42.3826 39.5622 38.3801 35.4647 35.9051 32.8847C35.4276 32.3847 34.6351 32.3672 34.1376 32.8472C33.6375 33.3248 33.6225 34.1172 34.1001 34.6148C34.7426 35.2847 40.41 41.1923 41.7276 42.2323C41.955 42.4123 42.2301 42.4998 42.5001 42.4998C42.8676 42.4998 43.2351 42.3348 43.485 42.0223C43.9126 41.4822 43.8202 40.6947 43.2776 40.2672Z" fill="#161616"/>
<path d="M38.2828 42.7747C36.7853 41.5771 33.0229 37.5796 32.1728 36.6547C31.7028 36.1447 30.9153 36.1147 30.4053 36.5797C29.8977 37.0471 29.8628 37.8397 30.3303 38.3472C30.3753 38.3947 34.8653 43.2423 36.7203 44.7273C36.9503 44.9097 37.2278 44.9997 37.5003 44.9997C37.8653 44.9997 38.2302 44.8372 38.4777 44.5323C38.9079 43.9921 38.8204 43.2046 38.2828 42.7747Z" fill="#161616"/>
<path d="M33.3073 45.2921C31.5248 43.7897 27.8773 39.9071 27.1648 39.1446C26.6923 38.6396 25.8998 38.6121 25.3973 39.0846C24.8923 39.5571 24.8673 40.3471 25.3373 40.8521C26.3623 41.9496 29.8523 45.6497 31.6948 47.2046C31.9298 47.4021 32.2148 47.4996 32.4998 47.4996C32.8548 47.4996 33.2098 47.3471 33.4573 47.0546C33.9023 46.5246 33.8348 45.7371 33.3073 45.2921Z" fill="#161616"/>
<path d="M14.61 14.0921C12.4675 12.0621 3.9 11.4045 1.32504 11.2521C0.970078 11.2346 0.642539 11.352 0.392578 11.5896C0.1425 11.8245 0 12.1545 0 12.4995V34.9995C0 35.6895 0.560039 36.2496 1.25004 36.2496H8.75004C9.29004 36.2496 9.77004 35.9021 9.9375 35.3871C10.12 34.827 14.4275 21.6071 14.995 15.1071C15.0275 14.727 14.8875 14.352 14.61 14.0921ZM7.8375 33.7496H2.49996V13.8396C6.5175 14.157 10.8525 14.847 12.4275 15.612C11.765 21.087 8.7675 30.8145 7.8375 33.7496Z" fill="#161616"/>
<path d="M58.7504 13.7496C48.9354 13.7496 43.4904 16.2621 43.2629 16.3671C42.9379 16.5196 42.6953 16.8021 42.5954 17.1447C42.4954 17.4872 42.5453 17.8547 42.7328 18.1596C44.2779 20.6472 49.1154 34.4622 50.0454 37.8321C50.1954 38.3746 50.6879 38.7496 51.2504 38.7496H58.7504C59.4404 38.7496 60.0004 38.1896 60.0004 37.4996V14.9996C60.0004 14.3071 59.4404 13.7496 58.7504 13.7496ZM57.5005 36.2496H52.1854C51.0004 32.3896 47.5004 22.3246 45.5479 18.1647C47.4554 17.5172 51.553 16.4046 57.5005 16.2647V36.2496Z" fill="#161616"/>
</g>
<defs>
<clipPath id="clip0">
<rect width="60" height="60" fill="white"/>
</clipPath>
</defs>
</svg>
