<svg width="60" height="60" viewBox="0 0 60 60" fill="none" xmlns="http://www.w3.org/2000/svg">
<path d="M47.3759 36.9621C46.1985 34.5071 41.9859 31.0996 37.916 27.8071C35.6459 25.972 33.5009 24.2371 32.1335 22.8696C31.7909 22.5246 31.2785 22.4146 30.826 22.5771C29.9836 22.8821 29.4635 23.1171 29.0536 23.2996C28.4286 23.5795 28.2186 23.6746 27.376 23.7595C27.0035 23.797 26.6686 23.9971 26.461 24.307C24.6935 26.9495 22.8635 26.7245 21.641 26.3146C21.251 26.1846 21.181 26.017 21.1435 25.8571C20.881 24.7596 22.1986 22.2046 23.906 20.497C27.9685 16.432 30.0635 15.4145 34.4885 17.392C39.5084 19.637 44.5385 21.3946 44.5885 21.412C45.2461 21.6395 45.9535 21.2945 46.181 20.642C46.406 19.9895 46.0634 19.277 45.4109 19.0495C45.3609 19.0321 40.431 17.3095 35.511 15.107C29.7785 12.5444 26.6334 14.2319 22.1409 18.727C20.4309 20.437 18.1084 23.897 18.7084 26.4346C18.9658 27.5146 19.7259 28.3146 20.8558 28.687C23.6884 29.6221 26.2733 28.727 28.1983 26.1721C28.9933 26.0496 29.4259 25.8696 30.0758 25.5771C30.3108 25.4721 30.5858 25.3496 30.9508 25.2021C32.3809 26.5446 34.3108 28.1071 36.3433 29.7496C40.0183 32.722 44.1859 36.0921 45.1234 38.0421C45.5859 39.0046 45.0883 39.6321 44.7508 39.9196C44.2558 40.3446 43.5784 40.4796 43.2109 40.222C42.8059 39.9445 42.2784 39.9271 41.8609 40.177C41.4409 40.427 41.2059 40.8995 41.2584 41.3845C41.3434 42.1795 40.6159 42.6346 40.3009 42.7921C39.5008 43.1971 38.6659 43.1271 38.3533 42.8371C38.0033 42.5121 37.5008 42.4171 37.0558 42.5821C36.6109 42.7495 36.3008 43.1596 36.2558 43.6345C36.1808 44.4545 35.5733 45.242 34.7808 45.5495C34.3983 45.6945 33.8433 45.782 33.3458 45.327C33.0358 45.047 32.6058 44.9394 32.2033 45.0369C31.7959 45.1369 31.4683 45.432 31.3258 45.8244C31.2784 45.9495 31.1708 46.2495 30.0008 46.2495C29.1683 46.2495 27.6707 45.687 26.9383 45.2019C26.0608 44.6244 20.5583 40.5194 15.8059 36.5394C15.1384 35.9769 13.9834 34.7719 12.9634 33.7069C12.0583 32.7619 11.2309 31.9044 10.8058 31.5444C10.2733 31.0944 9.48582 31.1619 9.04332 31.6919C8.59836 32.2194 8.66328 33.0095 9.19086 33.4544C9.5784 33.782 10.3284 34.5744 11.1559 35.4369C12.2709 36.6019 13.4233 37.8069 14.1984 38.4569C18.8534 42.3545 24.4484 46.562 25.5634 47.2944C26.4834 47.8995 28.4659 48.7494 30.0009 48.7494C31.2334 48.7494 32.1809 48.4669 32.8384 47.9145C33.7183 48.257 34.7184 48.2595 35.6809 47.8845C36.8184 47.4444 37.7533 46.557 38.2834 45.482C39.2683 45.692 40.3959 45.5445 41.4208 45.0295C42.4234 44.5246 43.1483 43.7521 43.5083 42.8495C44.5033 42.902 45.5283 42.5495 46.3758 41.822C47.811 40.5946 48.2059 38.6846 47.3759 36.9621Z" fill="white"/>
<path d="M25 16.2495H13.75C13.06 16.2495 12.5 16.8096 12.5 17.4995C12.5 18.1895 13.06 18.7496 13.75 18.7496H25C25.69 18.7496 26.2501 18.1895 26.2501 17.4995C26.2501 16.8096 25.69 16.2495 25 16.2495Z" fill="white"/>
<path d="M51.0382 34.302C50.6507 33.7296 49.8757 33.5721 49.3032 33.9621L45.6483 36.417C45.0758 36.802 44.9232 37.5795 45.3083 38.152C45.5508 38.5095 45.9458 38.7045 46.3483 38.7045C46.5859 38.7045 46.8283 38.637 47.0434 38.4921L50.6983 36.0371C51.2707 35.652 51.4232 34.8746 51.0382 34.302Z" fill="white"/>
<path d="M43.2776 40.2671C42.3826 39.5621 38.3801 35.4646 35.9051 32.8846C35.4276 32.3846 34.6351 32.3671 34.1376 32.8471C33.6375 33.3246 33.6225 34.1171 34.1001 34.6146C34.7426 35.2846 40.41 41.1921 41.7276 42.2322C41.955 42.4122 42.2301 42.4997 42.5001 42.4997C42.8676 42.4997 43.2351 42.3347 43.485 42.0222C43.9126 41.4821 43.8202 40.6946 43.2776 40.2671Z" fill="white"/>
<path d="M38.2819 42.7747C36.7843 41.5771 33.0219 37.5796 32.1718 36.6547C31.7018 36.1447 30.9143 36.1147 30.4043 36.5797C29.8967 37.0471 29.8618 37.8397 30.3293 38.3472C30.3743 38.3947 34.8643 43.2423 36.7193 44.7273C36.9493 44.9097 37.2268 44.9997 37.4993 44.9997C37.8643 44.9997 38.2292 44.8372 38.4767 44.5323C38.9069 43.9921 38.8194 43.2046 38.2819 42.7747Z" fill="white"/>
<path d="M33.3083 45.2921C31.5258 43.7897 27.8783 39.9071 27.1658 39.1446C26.6933 38.6396 25.9008 38.6121 25.3983 39.0846C24.8933 39.5571 24.8682 40.3471 25.3383 40.8521C26.3633 41.9496 29.8533 45.6497 31.6958 47.2046C31.9308 47.4021 32.2158 47.4996 32.5008 47.4996C32.8557 47.4996 33.2108 47.3471 33.4583 47.0546C33.9033 46.5246 33.8358 45.7371 33.3083 45.2921Z" fill="white"/>
<path d="M14.61 14.0922C12.4675 12.0622 3.9 11.4046 1.32504 11.2522C0.970078 11.2347 0.642539 11.3521 0.392578 11.5897C0.1425 11.8246 0 12.1546 0 12.4996V34.9997C0 35.6897 0.560039 36.2497 1.25004 36.2497H8.75004C9.29004 36.2497 9.77004 35.9022 9.9375 35.3872C10.12 34.8272 14.4275 21.6072 14.995 15.1072C15.0275 14.7271 14.8875 14.3521 14.61 14.0922ZM7.8375 33.7497H2.49996V13.8397C6.5175 14.1571 10.8525 14.8472 12.4275 15.6122C11.765 21.0872 8.7675 30.8147 7.8375 33.7497Z" fill="white"/>
<path d="M58.7504 13.7495C48.9354 13.7495 43.4904 16.262 43.2629 16.367C42.9379 16.5195 42.6953 16.802 42.5954 17.1445C42.4954 17.4871 42.5453 17.8546 42.7328 18.1595C44.2779 20.6471 49.1154 34.462 50.0454 37.832C50.1954 38.3745 50.6879 38.7495 51.2504 38.7495H58.7504C59.4404 38.7495 60.0004 38.1894 60.0004 37.4994V14.9994C60.0004 14.307 59.4404 13.7495 58.7504 13.7495ZM57.5005 36.2495H52.1854C51.0004 32.3895 47.5004 22.3245 45.5479 18.1646C47.4554 17.5171 51.553 16.4045 57.5005 16.2646V36.2495Z" fill="white"/>
</svg>
