<svg width="17" height="16" viewBox="0 0 17 16" fill="none" xmlns="http://www.w3.org/2000/svg">
<path d="M11.7836 1.31372H5.21498C3.4011 1.31372 1.93066 2.78416 1.93066 4.59803V11.1667C1.93066 12.9805 3.4011 14.451 5.21498 14.451H11.7836C13.5975 14.451 15.0679 12.9805 15.0679 11.1667V4.59803C15.0679 2.78416 13.5975 1.31372 11.7836 1.31372Z" fill="#8E8E8E"/>
<path d="M11.1269 7.46861C11.2079 8.01528 11.1146 8.5736 10.86 9.06414C10.6055 9.55469 10.2028 9.95248 9.70912 10.2009C9.21547 10.4494 8.65605 10.5359 8.11042 10.4481C7.56479 10.3603 7.06074 10.1027 6.66996 9.7119C6.27917 9.32112 6.02156 8.81707 5.93376 8.27144C5.84596 7.72581 5.93245 7.16639 6.18091 6.67274C6.42938 6.17909 6.82717 5.77636 7.31772 5.52183C7.80826 5.2673 8.36658 5.17392 8.91325 5.25499C9.47087 5.33767 9.98712 5.59752 10.3857 5.99613C10.7843 6.39474 11.0442 6.91099 11.1269 7.46861Z" stroke="#161616" stroke-linecap="round" stroke-linejoin="round"/>
<path d="M12.1123 4.26953H12.1185" stroke="#161616" stroke-linecap="round" stroke-linejoin="round"/>
</svg>
