<svg width="16" height="16" viewBox="0 0 16 16" fill="none" xmlns="http://www.w3.org/2000/svg">
<path d="M10.7449 5.25488C11.7902 5.25488 12.7926 5.67011 13.5317 6.40923C14.2708 7.14834 14.6861 8.15079 14.6861 9.19606V13.7941H12.0586V9.19606C12.0586 8.84764 11.9202 8.51349 11.6738 8.26711C11.4275 8.02074 11.0933 7.88233 10.7449 7.88233C10.3965 7.88233 10.0623 8.02074 9.81594 8.26711C9.56957 8.51349 9.43116 8.84764 9.43116 9.19606V13.7941H6.80371V9.19606C6.80371 8.15079 7.21894 7.14834 7.95806 6.40923C8.69717 5.67011 9.69962 5.25488 10.7449 5.25488Z" fill="#8E8E8E"/>
<path d="M4.17628 5.91187H1.54883V13.7942H4.17628V5.91187Z" fill="#8E8E8E"/>
<path d="M2.86255 3.94117C3.5881 3.94117 4.17628 3.353 4.17628 2.62745C4.17628 1.9019 3.5881 1.31372 2.86255 1.31372C2.137 1.31372 1.54883 1.9019 1.54883 2.62745C1.54883 3.353 2.137 3.94117 2.86255 3.94117Z" fill="#8E8E8E"/>
</svg>
