<svg width="60" height="60" viewBox="0 0 60 60" fill="none" xmlns="http://www.w3.org/2000/svg">
<path d="M11.25 37.2842C11.7678 37.2842 12.1875 36.8644 12.1875 36.3467C12.1875 35.8289 11.7678 35.4092 11.25 35.4092C10.7322 35.4092 10.3125 35.8289 10.3125 36.3467C10.3125 36.8644 10.7322 37.2842 11.25 37.2842Z" fill="white"/>
<path d="M30 26.0341C24.3137 26.0341 19.6875 30.6603 19.6875 36.3466C19.6875 42.0328 24.3137 46.6591 30 46.6591C35.6863 46.6591 40.3125 42.0328 40.3125 36.3466C40.3125 30.6603 35.6863 26.0341 30 26.0341ZM30.0463 35.4093C32.0927 35.4341 33.75 37.1067 33.75 39.1591C33.75 40.8413 32.6365 42.2684 31.1079 42.7421C31.0078 42.7731 30.9375 42.8628 30.9375 42.9675V43.8144C30.9375 44.3138 30.5607 44.7497 30.0625 44.7821C29.5165 44.8175 29.0625 44.385 29.0625 43.8466V42.9713C29.0625 42.8682 28.9972 42.7744 28.8987 42.7441C27.388 42.2791 26.2813 40.8835 26.2506 39.2295C26.241 38.7079 26.6246 38.245 27.1458 38.2225C27.6825 38.1993 28.1249 38.6276 28.1249 39.1591C28.1249 40.2226 29.015 41.0822 30.0895 41.0319C31.0433 40.9873 31.8282 40.2025 31.8728 39.2487C31.923 38.1743 31.0635 37.2841 29.9999 37.2841C27.9321 37.2841 26.2499 35.6018 26.2499 33.5341C26.2499 31.8518 27.3634 30.4247 28.892 29.951C28.9921 29.92 29.0624 29.8303 29.0624 29.7256V28.8787C29.0624 28.3793 29.4391 27.9434 29.9374 27.911C30.4834 27.8757 30.9374 28.3081 30.9374 28.8466V29.7218C30.9374 29.825 31.0027 29.9187 31.1012 29.9491C32.6119 30.4141 33.7186 31.8096 33.7493 33.4636C33.7589 33.9852 33.3752 34.4481 32.8541 34.4706C32.3174 34.4938 31.875 34.0655 31.875 33.5341C31.875 32.5002 31.0338 31.6591 30 31.6591C28.9595 31.6591 28.1141 32.5111 28.1251 33.5542C28.136 34.589 29.0114 35.3968 30.0463 35.4093Z" fill="white"/>
<path d="M57.1875 20.4091H2.8125C1.26176 20.4091 0 21.6708 0 23.2216V49.4715C0 51.0223 1.26176 52.2841 2.8125 52.2841H57.1875C58.7382 52.2841 60 51.0223 60 49.4715V23.2216C60 21.6707 58.7382 20.4091 57.1875 20.4091ZM19.6875 48.534H7.5C6.98484 48.534 6.56063 48.1185 6.5625 47.6033C6.56625 46.5641 5.71992 45.7178 4.6807 45.7216C4.16555 45.7234 3.75 45.2992 3.75 44.7841V27.9091C3.75 27.3939 4.16555 26.9697 4.6807 26.9716C5.71992 26.9753 6.56625 26.129 6.5625 25.0898C6.56063 24.5746 6.98484 24.1591 7.5 24.1591H19.6554C20.1547 24.1591 20.5907 24.5358 20.623 25.0341C20.6584 25.5801 20.226 26.0341 19.6875 26.0341H8.58047C8.42906 26.0341 8.29547 26.1313 8.24777 26.2751C7.87559 27.3966 6.98742 28.2848 5.86605 28.6568C5.72227 28.7045 5.625 28.8381 5.625 28.9895V43.7035C5.625 43.8549 5.72227 43.9885 5.86605 44.0362C6.98754 44.4083 7.8757 45.2965 8.24777 46.4179C8.29547 46.5616 8.42906 46.6589 8.58047 46.6589H19.6553C20.1546 46.6589 20.5905 47.0357 20.6229 47.534C20.6584 48.0801 20.2259 48.534 19.6875 48.534ZM14.0625 36.3466C14.0625 37.8973 12.8007 39.1591 11.25 39.1591C9.69926 39.1591 8.4375 37.8973 8.4375 36.3466C8.4375 34.7958 9.69926 33.5341 11.25 33.5341C12.8007 33.5341 14.0625 34.7957 14.0625 36.3466ZM30 48.534C23.2798 48.534 17.8125 43.0668 17.8125 36.3466C17.8125 29.6263 23.2798 24.1591 30 24.1591C36.7202 24.1591 42.1875 29.6263 42.1875 36.3466C42.1875 43.0668 36.7202 48.534 30 48.534ZM56.25 44.7841C56.25 45.2992 55.8345 45.7234 55.3193 45.7216C54.2801 45.7178 53.4338 46.5641 53.4375 47.6033C53.4394 48.1185 53.0152 48.534 52.5 48.534H40.3446C39.8453 48.534 39.4093 48.1573 39.377 47.659C39.3416 47.113 39.774 46.659 40.3125 46.659H51.4195C51.5709 46.659 51.7045 46.5618 51.7522 46.418C52.1244 45.2965 53.0126 44.4083 54.1339 44.0363C54.2776 43.9886 54.375 43.855 54.375 43.7036V28.9895C54.375 28.8381 54.2777 28.7045 54.1339 28.6568C53.0125 28.2846 52.1243 27.3965 51.7522 26.2751C51.7045 26.1314 51.5709 26.0341 51.4195 26.0341H40.3447C39.8454 26.0341 39.4095 25.6573 39.3771 25.159C39.3417 24.613 39.7741 24.1591 40.3126 24.1591H52.5001C53.0153 24.1591 53.4395 24.5746 53.4376 25.0898C53.4339 26.129 54.2802 26.9753 55.3194 26.9716C55.8346 26.9697 56.2501 27.3939 56.2501 27.9091V44.7841H56.25ZM45.9375 36.3466C45.9375 34.7958 47.1993 33.5341 48.75 33.5341C50.3007 33.5341 51.5625 34.7958 51.5625 36.3466C51.5625 37.8973 50.3007 39.1591 48.75 39.1591C47.1993 39.1591 45.9375 37.8973 45.9375 36.3466Z" fill="white"/>
<path d="M48.75 37.2842C49.2678 37.2842 49.6875 36.8644 49.6875 36.3467C49.6875 35.8289 49.2678 35.4092 48.75 35.4092C48.2322 35.4092 47.8125 35.8289 47.8125 36.3467C47.8125 36.8644 48.2322 37.2842 48.75 37.2842Z" fill="white"/>
<path d="M56.4782 15.615C56.285 14.0651 54.8647 12.9626 53.2977 13.1787L17.4844 18.3009C17.3404 18.3216 17.3555 18.5341 17.501 18.5341H56.5772C56.7182 18.5341 56.8273 18.4106 56.8098 18.2707L56.4782 15.615Z" fill="white"/>
<path d="M51.2277 11.5806C51.3653 11.5609 51.4546 11.4267 51.4208 11.2919L51.0596 9.84584C50.6799 8.32228 49.1265 7.40143 47.5908 7.81498L18.1203 16.08C17.9794 16.1195 18.0229 16.3296 18.1677 16.3088C25.5735 15.2498 45.7749 12.3613 51.2277 11.5806Z" fill="white"/>
</svg>
