<svg width="60" height="60" viewBox="0 0 60 60" fill="none" xmlns="http://www.w3.org/2000/svg">
<path d="M8.75 23.3954H11.7505L16.25 28.086L20.7495 23.3954H25.5003L30 28.086L34.4995 23.3954H39.2503L43.7498 28.086L48.2495 23.3954H51.2498C54.8037 23.3954 57.6951 20.5041 57.6951 16.9501V6.44531C57.6951 2.89137 54.8037 0 51.2498 0H8.75C5.19605 0 2.30469 2.89137 2.30469 6.44531V16.9501C2.30469 20.5041 5.19605 23.3954 8.75 23.3954ZM14.2606 13.3679V9.8523H45.7393V13.3679H14.2606Z" fill="white"/>
<path d="M16.7597 55.5798C16.7597 53.7195 17.1413 51.9179 17.8665 50.2639C17.3169 49.4238 16.642 48.6736 15.8666 48.041C14.1197 49.2471 12.0035 49.9546 9.72492 49.9546C7.44633 49.9546 5.33004 49.2471 3.58324 48.041C1.39676 49.8241 0 52.5386 0 55.5798V60.0001H16.7597V55.5798Z" fill="white"/>
<path d="M17.0277 39.5663C17.2784 35.5308 14.2102 32.0562 10.1747 31.8055C6.13923 31.5548 2.6646 34.623 2.4139 38.6585C2.16319 42.6939 5.23136 46.1686 9.26684 46.4193C13.3023 46.67 16.777 43.6018 17.0277 39.5663Z" fill="white"/>
<path d="M56.4171 48.041C54.6702 49.2471 52.554 49.9546 50.2754 49.9546C47.9967 49.9546 45.8805 49.2471 44.1337 48.041C43.3582 48.6735 42.6834 49.4238 42.1338 50.2638C42.8591 51.9179 43.2406 53.7195 43.2406 55.5798V60.0001H60.0001C60.0001 60.0001 60.0001 55.5806 60.0001 55.5798C60.0001 52.5386 58.6033 49.8241 56.4171 48.041Z" fill="white"/>
<path d="M53.0248 45.8821C56.7772 44.3739 58.5965 40.1092 57.0882 36.3568C55.58 32.6044 51.3154 30.7851 47.5629 32.2934C43.8105 33.8016 41.9912 38.0662 43.4995 41.8187C45.0077 45.5711 49.2724 47.3904 53.0248 45.8821Z" fill="white"/>
<path d="M39.7249 60.0001C39.7249 60.0001 39.7249 55.5806 39.7249 55.5798C39.7249 52.5386 38.328 49.8243 36.1418 48.041C34.395 49.2471 32.2787 49.9546 30.0001 49.9546C27.7215 49.9546 25.6052 49.2471 23.8584 48.041C21.6721 49.8243 20.2754 52.5386 20.2754 55.5798V60.0001H39.7249Z" fill="white"/>
<path d="M30.3696 46.4537C34.4091 46.2475 37.5166 42.8057 37.3104 38.7661C37.1042 34.7266 33.6623 31.6191 29.6228 31.8253C25.5833 32.0316 22.4758 35.4734 22.682 39.5129C22.8882 43.5525 26.3301 46.66 30.3696 46.4537Z" fill="white"/>
</svg>
