<svg width="16" height="16" viewBox="0 0 16 16" fill="none" xmlns="http://www.w3.org/2000/svg">
<g clip-path="url(#clip0)">
<path d="M15.1082 1.97072C14.4792 2.41441 13.7827 2.75377 13.0457 2.97572C12.6501 2.52085 12.1243 2.19845 11.5395 2.05212C10.9547 1.90579 10.3391 1.9426 9.77585 2.15756C9.21264 2.37253 8.72905 2.75527 8.39046 3.25404C8.05187 3.75281 7.87464 4.34353 7.88272 4.9463V5.60317C6.72837 5.6331 5.58453 5.37708 4.55309 4.85792C3.52164 4.33876 2.63459 3.57257 1.97095 2.62758C1.97095 2.62758 -0.656499 8.53934 5.25527 11.1668C3.90248 12.0851 2.29095 12.5455 0.657227 12.4805C6.56899 15.7648 13.7945 12.4805 13.7945 4.9266C13.7939 4.74363 13.7763 4.56112 13.7419 4.3814C14.4123 3.72027 14.8854 2.88554 15.1082 1.97072Z" fill="#8E8E8E"/>
</g>
<defs>
<clipPath id="clip0">
<rect width="15.7647" height="15.7647" fill="white"/>
</clipPath>
</defs>
</svg>
